# xmcd
#
# Track frame offsets:
#	150
#	15992
#	28139
#	41761
#	53845
#	68575
#	81704
#	95159
#	108918
#	121230
#	134975
#
# Disc length: 1997 seconds
#
# Revision: 0
# Processed by: cddbd v1.4PL0 Copyright (c) Steve Scherf et al.
# Submitted via: EasyCDDAExtractor 4.5.0.2
#
DISCID=9b07cb0b
DTITLE=CLINTON GREGORY - MASTER OF ILLUSION
DYEAR=1900
DGENRE=Country
TTITLE0=If I Were A Painting
TTITLE1=Standing On The Edge Of Love
TTITLE2=Master Of Illusion
TTITLE3=The Day The Boys Leave The Girls Alone
TTITLE4=In The Arms Of Love
TTITLE5=Somewhere Beyond Nowhere
TTITLE6=Surrender
TTITLE7=Rockin' The Country
TTITLE8=Watermelon Time In Georgia
TTITLE9=Ladies Choice
TTITLE10=Wish You Were Here
EXTD=
EXTT0=
EXTT1=
EXTT2=
EXTT3=
EXTT4=
EXTT5=
EXTT6=
EXTT7=
EXTT8=
EXTT9=
EXTT10=
PLAYORDER=
